<svg xmlns="http://www.w3.org/2000/svg" width="512" height="640" viewBox="0 0 512 640">
  <defs>
    <linearGradient id="body" x1="0" y1="0" x2="0" y2="1">
      <stop offset="0" stop-color="#ffffff"/>
      <stop offset="0.6" stop-color="#f5f3ec"/>
      <stop offset="1" stop-color="#d9d5c7"/>
    </linearGradient>
    <radialGradient id="blush" cx="0.5" cy="0.5" r="0.5">
      <stop offset="0" stop-color="#f2b4a0" stop-opacity="0.5"/>
      <stop offset="1" stop-color="#f2b4a0" stop-opacity="0"/>
    </radialGradient>
    <linearGradient id="horn" x1="0" y1="0" x2="0" y2="1">
      <stop offset="0" stop-color="#f4dd96"/>
      <stop offset="1" stop-color="#d2a94e"/>
    </linearGradient>
  </defs>
  <path d="M256 36 C 256 36 448 300 448 420 A 192 192 0 1 1 64 420 C 64 300 256 36 256 36 Z"
        fill="url(#body)" stroke="#8f8b7a" stroke-width="4" stroke-opacity="0.5"/>
  <ellipse cx="185" cy="330" rx="34" ry="58" fill="#ffffff" opacity="0.7" transform="rotate(-16 185 330)"/>
  <path d="M196 150 C 176 120 176 92 196 74 C 206 96 212 122 214 148 Z" fill="url(#horn)" stroke="#b3924a" stroke-width="3"/>
  <path d="M316 150 C 336 120 336 92 316 74 C 306 96 300 122 298 148 Z" fill="url(#horn)" stroke="#b3924a" stroke-width="3"/>
  <path d="M182 336 Q 205 326 228 336" fill="none" stroke="#4a463c" stroke-width="6" stroke-linecap="round"/>
  <path d="M284 336 Q 307 326 330 336" fill="none" stroke="#4a463c" stroke-width="6" stroke-linecap="round"/>
  <ellipse cx="205" cy="382" rx="21" ry="27" fill="#4a463c"/>
  <ellipse cx="307" cy="382" rx="21" ry="27" fill="#4a463c"/>
  <circle cx="198" cy="373" r="7" fill="#ffffff"/>
  <circle cx="300" cy="373" r="7" fill="#ffffff"/>
  <ellipse cx="256" cy="438" rx="15" ry="19" fill="#4a463c"/>
  <ellipse cx="168" cy="424" rx="22" ry="13" fill="url(#blush)"/>
  <ellipse cx="344" cy="424" rx="22" ry="13" fill="url(#blush)"/>
  <path d="M404 268 C 404 268 420 292 420 302 A 16 16 0 1 1 388 302 C 388 292 404 268 404 268 Z" fill="#bcd9f7" opacity="0.9" stroke="#8fb6e0" stroke-width="2"/>
</svg>
